HIERARCHY
ROOT pelvis
{
  OFFSET 0 100 0
  CHANNELS 6 Xposition Yposition Zposition Zrotation Xrotation Yrotation
  JOINT pelvis_right_femur
  {
    OFFSET -10.78128 -3.44521 -0.5502486
    CHANNELS 3 Zrotation Xrotation Yrotation
    JOINT right_femur_tibia
    {
      OFFSET -0.8047443 -44.0398 -0.1307829
      CHANNELS 3 Zrotation Xrotation Yrotation
      JOINT right_tibia_foot
      {
        OFFSET 3.006224 -47.83518 -5
        CHANNELS 3 Zrotation Xrotation Yrotation
        End Site
        {
          OFFSET 0 -5 15
        }
      }
    }
  }
  JOINT pelvis_left_femur
  {
    OFFSET 10.78128 -3.44521 -0.5502486
    CHANNELS 3 Zrotation Xrotation Yrotation
    JOINT left_femur_tibia
    {
      OFFSET 0.8047443 -44.0398 -0.1307829
      CHANNELS 3 Zrotation Xrotation Yrotation
      JOINT left_tibia_foot
      {
        OFFSET -4.370144 -48.10324 -4.275266
        CHANNELS 3 Zrotation Xrotation Yrotation
        End Site
        {
          OFFSET 0 -5 15
        }
      }
    }
  }
  JOINT pelvis_spine1
  {
    OFFSET 0 6.468898 -3.129235
    CHANNELS 3 Zrotation Xrotation Yrotation
    JOINT spine1
    {
      OFFSET 0 23.15396 4.99043
      CHANNELS 3 Zrotation Xrotation Yrotation
      JOINT spine2
      {
        OFFSET 0 20.79997 -5.064912
        CHANNELS 3 Zrotation Xrotation Yrotation
        JOINT neck
        {
          OFFSET 0 14.38658 9.616178
          CHANNELS 3 Zrotation Xrotation Yrotation
          End Site
          {
            OFFSET 0 20 0
          }
        }
      }
      JOINT right_manubrium
      {
        OFFSET -5.722621 16.35077 3.967754
        CHANNELS 3 Zrotation Xrotation Yrotation
        JOINT right_clavicle
        {
          OFFSET -13.16364 1.694482 -4.693211
          CHANNELS 3 Zrotation Xrotation Yrotation
          JOINT right_humerus
          {
            OFFSET -28.5034 -0.3100689 -2.792744
            CHANNELS 3 Zrotation Xrotation Yrotation
            JOINT right_radius
            {
              OFFSET -25.15693 0.02248979 -1.271978
              CHANNELS 3 Zrotation Xrotation Yrotation
              End Site
              {
                OFFSET -15 0 0
              }
            }
          }
        }
      }
      JOINT left_manubrium
      {
        OFFSET 5.722621 16.35077 3.967754
        CHANNELS 3 Zrotation Xrotation Yrotation
        JOINT left_clavicle
        {
          OFFSET 13.16364 1.694482 -4.693211
          CHANNELS 3 Zrotation Xrotation Yrotation
          JOINT left_humerus
          {
            OFFSET 29.39168 -1.063119 -2.237045
            CHANNELS 3 Zrotation Xrotation Yrotation
            JOINT left_radius
            {
              OFFSET 24.59957 -0.9528479 0.9047498
              CHANNELS 3 Zrotation Xrotation Yrotation
              End Site
              {
                OFFSET 15 -0 -0
              }
            }
          }
        }
      }
    }
  }
}
MOTION
Frames: 21
Frame Time: 0.0416666666667
-1543.875 65.6112 1894.085 -12.37398 1.440901 -91.96292 5.146323 4.074583 -1.780904 -0 40.34607 -0 -5.268248 -2.891703 -6.061554 -0.7158334 -5.79967 -9.405226 -0 32.91132 -0 0.1934956 -3.426638 13.23064 1.376366 -5.480276 3.657782 -1.138289 15.50643 -4.196329 4.505064 25.28048 0.3456902 -1.235736 -12.55782 6.274102 -0.3705184 -23.63379 13.80366 90.61893 5.018806 -12.2528 -0 0 15.93699 -31.51021 19.80663 21.85638 1.592572 -21.5977 -9.606665 -94.23047 26.87306 27.0768 0 0 -15.58387 -4.824727 25.50243 21.76848
-1549.387 65.68716 1894.422 -12.36923 1.481708 -92.14902 5.146323 4.074583 -1.780904 -0 40.34607 -0 -5.268248 -2.891703 -6.061554 -0.7158334 -5.79967 -9.405226 -0 32.91132 -0 0.1934956 -3.426638 13.23064 1.376366 -5.480276 3.657782 -1.138289 15.50643 -4.196329 4.505064 25.28048 0.3456902 -1.235736 -12.55782 6.274102 -0.3705184 -23.63379 13.80366 90.61893 5.018806 -12.2528 -0 0 15.93699 -31.51021 19.80663 21.85638 1.592572 -21.5977 -9.606665 -94.23047 26.87306 27.0768 0 0 -15.58387 -4.824727 25.50243 21.76848
-1554.899 65.76311 1894.741 -12.36435 1.5225 -92.33513 5.146323 4.074583 -1.780904 -0 40.34607 -0 -5.268248 -2.891703 -6.061554 -0.7158334 -5.79967 -9.405226 -0 32.91132 -0 0.1934956 -3.426638 13.23064 1.376366 -5.480276 3.657782 -1.138289 15.50643 -4.196329 4.505064 25.28048 0.3456902 -1.235736 -12.55782 6.274102 -0.3705184 -23.63379 13.80366 90.61893 5.018806 -12.2528 -0 0 15.93699 -31.51021 19.80663 21.85638 1.592572 -21.5977 -9.606665 -94.23047 26.87306 27.0768 0 0 -15.58387 -4.824727 25.50243 21.76848
-1560.412 65.83906 1895.041 -12.35934 1.563276 -92.52124 5.146323 4.074583 -1.780904 -0 40.34607 -0 -5.268248 -2.891703 -6.061554 -0.7158334 -5.79967 -9.405226 -0 32.91132 -0 0.1934956 -3.426638 13.23064 1.376366 -5.480276 3.657782 -1.138289 15.50643 -4.196329 4.505064 25.28048 0.3456902 -1.235736 -12.55782 6.274102 -0.3705184 -23.63379 13.80366 90.61893 5.018806 -12.2528 -0 0 15.93699 -31.51021 19.80663 21.85638 1.592572 -21.5977 -9.606665 -94.23047 26.87306 27.0768 0 0 -15.58387 -4.824727 25.50243 21.76848
-1565.927 65.91501 1895.323 -12.3542 1.604035 -92.70737 5.146323 4.074583 -1.780904 -0 40.34607 -0 -5.268248 -2.891703 -6.061554 -0.7158334 -5.79967 -9.405226 -0 32.91132 -0 0.1934956 -3.426638 13.23064 1.376366 -5.480276 3.657782 -1.138289 15.50643 -4.196329 4.505064 25.28048 0.3456902 -1.235736 -12.55782 6.274102 -0.3705184 -23.63379 13.80366 90.61893 5.018806 -12.2528 -0 0 15.93699 -31.51021 19.80663 21.85638 1.592572 -21.5977 -9.606665 -94.23047 26.87306 27.0768 0 0 -15.58387 -4.824727 25.50243 21.76848
-1571.442 65.99096 1895.587 -12.34892 1.644777 -92.8935 5.146323 4.074583 -1.780904 -0 40.34607 -0 -5.268248 -2.891703 -6.061554 -0.7158334 -5.79967 -9.405226 -0 32.91132 -0 0.1934956 -3.426638 13.23064 1.376366 -5.480276 3.657782 -1.138289 15.50643 -4.196329 4.505064 25.28048 0.3456902 -1.235736 -12.55782 6.274102 -0.3705184 -23.63379 13.80366 90.61893 5.018806 -12.2528 -0 0 15.93699 -31.51021 19.80663 21.85638 1.592572 -21.5977 -9.606665 -94.23047 26.87306 27.0768 0 0 -15.58387 -4.824727 25.50243 21.76848
-1576.958 66.06692 1895.832 -12.34351 1.685502 -93.07964 5.146323 4.074583 -1.780904 -0 40.34607 -0 -5.268248 -2.891703 -6.061554 -0.7158334 -5.79967 -9.405226 -0 32.91132 -0 0.1934956 -3.426638 13.23064 1.376366 -5.480276 3.657782 -1.138289 15.50643 -4.196329 4.505064 25.28048 0.3456902 -1.235736 -12.55782 6.274102 -0.3705184 -23.63379 13.80366 90.61893 5.018806 -12.2528 -0 0 15.93699 -31.51021 19.80663 21.85638 1.592572 -21.5977 -9.606665 -94.23047 26.87306 27.0768 0 0 -15.58387 -4.824727 25.50243 21.76848
-1582.475 66.14287 1896.059 -12.33797 1.726209 -93.26578 5.146323 4.074583 -1.780904 -0 40.34607 -0 -5.268248 -2.891703 -6.061554 -0.7158334 -5.79967 -9.405226 -0 32.91132 -0 0.1934956 -3.426638 13.23064 1.376366 -5.480276 3.657782 -1.138289 15.50643 -4.196329 4.505064 25.28048 0.3456902 -1.235736 -12.55782 6.274102 -0.3705184 -23.63379 13.80366 90.61893 5.018806 -12.2528 -0 0 15.93699 -31.51021 19.80663 21.85638 1.592572 -21.5977 -9.606665 -94.23047 26.87306 27.0768 0 0 -15.58387 -4.824727 25.50243 21.76848
-1587.993 66.21882 1896.268 -12.3323 1.766898 -93.45194 5.146323 4.074583 -1.780904 -0 40.34607 -0 -5.268248 -2.891703 -6.061554 -0.7158334 -5.79967 -9.405226 -0 32.91132 -0 0.1934956 -3.426638 13.23064 1.376366 -5.480276 3.657782 -1.138289 15.50643 -4.196329 4.505064 25.28048 0.3456902 -1.235736 -12.55782 6.274102 -0.3705184 -23.63379 13.80366 90.61893 5.018806 -12.2528 -0 0 15.93699 -31.51021 19.80663 21.85638 1.592572 -21.5977 -9.606665 -94.23047 26.87306 27.0768 0 0 -15.58387 -4.824727 25.50243 21.76848
-1593.511 66.29477 1896.458 -12.32649 1.807568 -93.6381 5.146323 4.074583 -1.780904 -0 40.34607 -0 -5.268248 -2.891703 -6.061554 -0.7158334 -5.79967 -9.405226 -0 32.91132 -0 0.1934956 -3.426638 13.23064 1.376366 -5.480276 3.657782 -1.138289 15.50643 -4.196329 4.505064 25.28048 0.3456902 -1.235736 -12.55782 6.274102 -0.3705184 -23.63379 13.80366 90.61893 5.018806 -12.2528 -0 0 15.93699 -31.51021 19.80663 21.85638 1.592572 -21.5977 -9.606665 -94.23047 26.87306 27.0768 0 0 -15.58387 -4.824727 25.50243 21.76848
-1599.03 66.37073 1896.63 -12.32055 1.84822 -93.82427 5.146323 4.074583 -1.780904 -0 40.34607 -0 -5.268248 -2.891703 -6.061554 -0.7158334 -5.79967 -9.405226 -0 32.91132 -0 0.1934956 -3.426638 13.23064 1.376366 -5.480276 3.657782 -1.138289 15.50643 -4.196329 4.505064 25.28048 0.3456902 -1.235736 -12.55782 6.274102 -0.3705184 -23.63379 13.80366 90.61893 5.018806 -12.2528 -0 0 15.93699 -31.51021 19.80663 21.85638 1.592572 -21.5977 -9.606665 -94.23047 26.87306 27.0768 0 0 -15.58387 -4.824727 25.50243 21.76848
-1604.55 66.44668 1896.784 -12.31448 1.888851 -94.01045 5.146323 4.074583 -1.780904 -0 40.34607 -0 -5.268248 -2.891703 -6.061554 -0.7158334 -5.79967 -9.405226 -0 32.91132 -0 0.1934956 -3.426638 13.23064 1.376366 -5.480276 3.657782 -1.138289 15.50643 -4.196329 4.505064 25.28048 0.3456902 -1.235736 -12.55782 6.274102 -0.3705184 -23.63379 13.80366 90.61893 5.018806 -12.2528 -0 0 15.93699 -31.51021 19.80663 21.85638 1.592572 -21.5977 -9.606665 -94.23047 26.87306 27.0768 0 0 -15.58387 -4.824727 25.50243 21.76848
-1610.07 66.52263 1896.919 -12.30828 1.929463 -94.19664 5.146323 4.074583 -1.780904 -0 40.34607 -0 -5.268248 -2.891703 -6.061554 -0.7158334 -5.79967 -9.405226 -0 32.91132 -0 0.1934956 -3.426638 13.23064 1.376366 -5.480276 3.657782 -1.138289 15.50643 -4.196329 4.505064 25.28048 0.3456902 -1.235736 -12.55782 6.274102 -0.3705184 -23.63379 13.80366 90.61893 5.018806 -12.2528 -0 0 15.93699 -31.51021 19.80663 21.85638 1.592572 -21.5977 -9.606665 -94.23047 26.87306 27.0768 0 0 -15.58387 -4.824727 25.50243 21.76848
-1615.59 66.59858 1897.036 -12.30195 1.970055 -94.38284 5.146323 4.074583 -1.780904 -0 40.34607 -0 -5.268248 -2.891703 -6.061554 -0.7158334 -5.79967 -9.405226 -0 32.91132 -0 0.1934956 -3.426638 13.23064 1.376366 -5.480276 3.657782 -1.138289 15.50643 -4.196329 4.505064 25.28048 0.3456902 -1.235736 -12.55782 6.274102 -0.3705184 -23.63379 13.80366 90.61893 5.018806 -12.2528 -0 0 15.93699 -31.51021 19.80663 21.85638 1.592572 -21.5977 -9.606665 -94.23047 26.87306 27.0768 0 0 -15.58387 -4.824727 25.50243 21.76848
-1621.111 66.67453 1897.134 -12.29548 2.010625 -94.56904 5.146323 4.074583 -1.780904 -0 40.34607 -0 -5.268248 -2.891703 -6.061554 -0.7158334 -5.79967 -9.405226 -0 32.91132 -0 0.1934956 -3.426638 13.23064 1.376366 -5.480276 3.657782 -1.138289 15.50643 -4.196329 4.505064 25.28048 0.3456902 -1.235736 -12.55782 6.274102 -0.3705184 -23.63379 13.80366 90.61893 5.018806 -12.2528 -0 0 15.93699 -31.51021 19.80663 21.85638 1.592572 -21.5977 -9.606665 -94.23047 26.87306 27.0768 0 0 -15.58387 -4.824727 25.50243 21.76848
-1626.632 66.75049 1897.215 -12.28888 2.051175 -94.75526 5.146323 4.074583 -1.780904 -0 40.34607 -0 -5.268248 -2.891703 -6.061554 -0.7158334 -5.79967 -9.405226 -0 32.91132 -0 0.1934956 -3.426638 13.23064 1.376366 -5.480276 3.657782 -1.138289 15.50643 -4.196329 4.505064 25.28048 0.3456902 -1.235736 -12.55782 6.274102 -0.3705184 -23.63379 13.80366 90.61893 5.018806 -12.2528 -0 0 15.93699 -31.51021 19.80663 21.85638 1.592572 -21.5977 -9.606665 -94.23047 26.87306 27.0768 0 0 -15.58387 -4.824727 25.50243 21.76848
-1632.153 66.82644 1897.276 -12.28215 2.091702 -94.94148 5.146323 4.074583 -1.780904 -0 40.34607 -0 -5.268248 -2.891703 -6.061554 -0.7158334 -5.79967 -9.405226 -0 32.91132 -0 0.1934956 -3.426638 13.23064 1.376366 -5.480276 3.657782 -1.138289 15.50643 -4.196329 4.505064 25.28048 0.3456902 -1.235736 -12.55782 6.274102 -0.3705184 -23.63379 13.80366 90.61893 5.018806 -12.2528 -0 0 15.93699 -31.51021 19.80663 21.85638 1.592572 -21.5977 -9.606665 -94.23047 26.87306 27.0768 0 0 -15.58387 -4.824727 25.50243 21.76848
-1637.675 66.90239 1897.32 -12.27529 2.132208 -95.12772 5.146323 4.074583 -1.780904 -0 40.34607 -0 -5.268248 -2.891703 -6.061554 -0.7158334 -5.79967 -9.405226 -0 32.91132 -0 0.1934956 -3.426638 13.23064 1.376366 -5.480276 3.657782 -1.138289 15.50643 -4.196329 4.505064 25.28048 0.3456902 -1.235736 -12.55782 6.274102 -0.3705184 -23.63379 13.80366 90.61893 5.018806 -12.2528 -0 0 15.93699 -31.51021 19.80663 21.85638 1.592572 -21.5977 -9.606665 -94.23047 26.87306 27.0768 0 0 -15.58387 -4.824727 25.50243 21.76848
-1643.196 66.97834 1897.345 -12.26829 2.172691 -95.31396 5.146323 4.074583 -1.780904 -0 40.34607 -0 -5.268248 -2.891703 -6.061554 -0.7158334 -5.79967 -9.405226 -0 32.91132 -0 0.1934956 -3.426638 13.23064 1.376366 -5.480276 3.657782 -1.138289 15.50643 -4.196329 4.505064 25.28048 0.3456902 -1.235736 -12.55782 6.274102 -0.3705184 -23.63379 13.80366 90.61893 5.018806 -12.2528 -0 0 15.93699 -31.51021 19.80663 21.85638 1.592572 -21.5977 -9.606665 -94.23047 26.87306 27.0768 0 0 -15.58387 -4.824727 25.50243 21.76848
-1648.718 67.05429 1897.352 -12.26116 2.213152 -95.50021 5.146323 4.074583 -1.780904 -0 40.34607 -0 -5.268248 -2.891703 -6.061554 -0.7158334 -5.79967 -9.405226 -0 32.91132 -0 0.1934956 -3.426638 13.23064 1.376366 -5.480276 3.657782 -1.138289 15.50643 -4.196329 4.505064 25.28048 0.3456902 -1.235736 -12.55782 6.274102 -0.3705184 -23.63379 13.80366 90.61893 5.018806 -12.2528 -0 0 15.93699 -31.51021 19.80663 21.85638 1.592572 -21.5977 -9.606665 -94.23047 26.87306 27.0768 0 0 -15.58387 -4.824727 25.50243 21.76848
-1654.24 67.13025 1897.34 -12.25391 2.253588 -95.68648 5.146323 4.074583 -1.780904 -0 40.34607 -0 -5.268248 -2.891703 -6.061554 -0.7158334 -5.79967 -9.405226 -0 32.91132 -0 0.1934956 -3.426638 13.23064 1.376366 -5.480276 3.657782 -1.138289 15.50643 -4.196329 4.505064 25.28048 0.3456902 -1.235736 -12.55782 6.274102 -0.3705184 -23.63379 13.80366 90.61893 5.018806 -12.2528 -0 0 15.93699 -31.51021 19.80663 21.85638 1.592572 -21.5977 -9.606665 -94.23047 26.87306 27.0768 0 0 -15.58387 -4.824727 25.50243 21.76848
